<?xml version="1.0" encoding="utf-8"?>
<!-- Generator: Adobe Illustrator 16.0.3, SVG Export Plug-In . SVG Version: 6.00 Build 0)  -->
<!DOCTYPE svg PUBLIC "-//W3C//DTD SVG 1.1//EN" "http://www.w3.org/Graphics/SVG/1.1/DTD/svg11.dtd">
<svg version="1.1" id="Layer_1" xmlns="http://www.w3.org/2000/svg" xmlns:xlink="http://www.w3.org/1999/xlink" x="0px" y="0px"
	 width="64px" height="64px" viewBox="0 0 64 64" enable-background="new 0 0 64 64" xml:space="preserve">
<g>
	<title>Layer 1</title>
	<path id="path412" fill="#231F20" d="M10.899,50.994v0.448c-0.031,0.083-0.005,0.198-0.042,0.285
		c-0.175,1.471-1.479,2.807-2.99,3.063c-0.153,0.059-0.335,0.057-0.493,0.082H6.796c-0.158-0.025-0.34-0.023-0.494-0.082
		c-1.63-0.271-2.958-1.787-3.032-3.362v-0.462c0.052-0.308,0.117-0.628,0.243-0.923c0.127-0.236,0.258-0.471,0.409-0.693
		l0.479-0.626c1.072-1.231,2.012-2.553,2.718-3.993l0.195,0.398c0.583,1.372,1.504,2.589,2.51,3.73
		c0.109,0.154,0.226,0.304,0.353,0.449c0.189,0.28,0.374,0.564,0.521,0.871C10.8,50.441,10.864,50.722,10.899,50.994L10.899,50.994z
		"/>
</g>
<g>
	<path fill="#231F20" d="M46.069,49.337L57.44,60.708c1.272,1.271,3.335,1.271,4.606,0s1.271-3.334,0-4.606l-11.37-11.37
		L46.069,49.337z"/>
	<g>
		<defs>
			<path id="SVGID_1_" d="M24.519,47.109l8.167,8.166c1.399,1.4,3.672,1.396,5.076-0.007l17.507-17.507
				c1.403-1.404,1.406-3.677,0.007-5.076l-8.166-8.167L24.519,47.109z"/>
		</defs>
		<clipPath id="SVGID_2_">
			<use xlink:href="#SVGID_1_"  overflow="visible"/>
		</clipPath>
		<g display="none" clip-path="url(#SVGID_2_)">
			<g display="inline">
				<polygon fill="#231F20" points="83.731,64.647 83.721,65.455 -14.834,66.839 -14.823,66.031 				"/>
				<polygon fill="#231F20" points="83.755,63.031 83.743,63.839 -14.811,65.225 -14.8,64.416 				"/>
				<polygon fill="#FFFFFF" points="83.743,63.839 83.731,64.647 -14.823,66.031 -14.811,65.225 				"/>
				<polygon fill="#FFFFFF" points="83.766,62.224 83.755,63.031 -14.8,64.416 -14.789,63.608 				"/>
			</g>
			<g display="inline">
				<polygon fill="#231F20" points="83.777,61.415 83.766,62.224 -14.789,63.608 -14.778,62.801 				"/>
				<polygon fill="#231F20" points="83.8,59.8 83.788,60.607 -14.766,61.992 -14.754,61.185 				"/>
				<polygon fill="#FFFFFF" points="83.788,60.607 83.777,61.415 -14.778,62.801 -14.766,61.992 				"/>
				<polygon fill="#FFFFFF" points="83.812,58.992 83.8,59.8 -14.754,61.185 -14.743,60.377 				"/>
			</g>
			<g display="inline">
				<polygon fill="#231F20" points="83.777,61.415 83.766,62.224 -14.789,63.608 -14.778,62.801 				"/>
				<polygon fill="#231F20" points="83.8,59.8 83.788,60.607 -14.766,61.992 -14.754,61.185 				"/>
				<polygon fill="#FFFFFF" points="83.788,60.607 83.777,61.415 -14.778,62.801 -14.766,61.992 				"/>
				<polygon fill="#FFFFFF" points="83.812,58.992 83.8,59.8 -14.754,61.185 -14.743,60.377 				"/>
			</g>
			<g display="inline">
				<polygon fill="#231F20" points="83.822,58.185 83.812,58.992 -14.743,60.377 -14.732,59.568 				"/>
				<polygon fill="#231F20" points="83.846,56.569 83.834,57.376 -14.72,58.761 -14.708,57.953 				"/>
				<polygon fill="#FFFFFF" points="83.834,57.376 83.822,58.185 -14.732,59.568 -14.72,58.761 				"/>
				<polygon fill="#FFFFFF" points="83.856,55.762 83.846,56.569 -14.708,57.953 -14.698,57.146 				"/>
			</g>
			<g display="inline">
				<polygon fill="#231F20" points="83.822,58.185 83.812,58.992 -14.743,60.377 -14.732,59.568 				"/>
				<polygon fill="#231F20" points="83.846,56.569 83.834,57.376 -14.72,58.761 -14.708,57.953 				"/>
				<polygon fill="#FFFFFF" points="83.834,57.376 83.822,58.185 -14.732,59.568 -14.72,58.761 				"/>
				<polygon fill="#FFFFFF" points="83.856,55.762 83.846,56.569 -14.708,57.953 -14.698,57.146 				"/>
			</g>
			<g display="inline">
				<polygon fill="#231F20" points="83.868,54.954 83.856,55.762 -14.698,57.146 -14.687,56.337 				"/>
				<polygon fill="#231F20" points="83.891,53.338 83.879,54.146 -14.675,55.529 -14.664,54.722 				"/>
				<polygon fill="#FFFFFF" points="83.879,54.146 83.868,54.954 -14.687,56.337 -14.675,55.529 				"/>
				<polygon fill="#FFFFFF" points="83.902,52.53 83.891,53.338 -14.664,54.722 -14.652,53.914 				"/>
			</g>
			<g display="inline">
				<polygon fill="#231F20" points="83.868,54.954 83.856,55.762 -14.698,57.146 -14.687,56.337 				"/>
				<polygon fill="#231F20" points="83.891,53.338 83.879,54.146 -14.675,55.529 -14.664,54.722 				"/>
				<polygon fill="#FFFFFF" points="83.879,54.146 83.868,54.954 -14.687,56.337 -14.675,55.529 				"/>
				<polygon fill="#FFFFFF" points="83.902,52.53 83.891,53.338 -14.664,54.722 -14.652,53.914 				"/>
			</g>
			<g display="inline">
				<polygon fill="#231F20" points="83.913,51.723 83.902,52.53 -14.652,53.914 -14.641,53.106 				"/>
				<polygon fill="#231F20" points="83.937,50.106 83.925,50.914 -14.629,52.299 -14.618,51.49 				"/>
				<polygon fill="#FFFFFF" points="83.925,50.914 83.913,51.723 -14.641,53.106 -14.629,52.299 				"/>
				<polygon fill="#FFFFFF" points="83.947,49.299 83.937,50.106 -14.618,51.49 -14.607,50.684 				"/>
			</g>
			<g display="inline">
				<polygon fill="#231F20" points="83.913,51.723 83.902,52.53 -14.652,53.914 -14.641,53.106 				"/>
				<polygon fill="#231F20" points="83.937,50.106 83.925,50.914 -14.629,52.299 -14.618,51.49 				"/>
				<polygon fill="#FFFFFF" points="83.925,50.914 83.913,51.723 -14.641,53.106 -14.629,52.299 				"/>
				<polygon fill="#FFFFFF" points="83.947,49.299 83.937,50.106 -14.618,51.49 -14.607,50.684 				"/>
			</g>
			<g display="inline">
				<polygon fill="#231F20" points="83.959,48.49 83.947,49.299 -14.607,50.684 -14.596,49.876 				"/>
				<polygon fill="#231F20" points="83.981,46.875 83.97,47.683 -14.584,49.067 -14.573,48.26 				"/>
				<polygon fill="#FFFFFF" points="83.97,47.683 83.959,48.49 -14.596,49.876 -14.584,49.067 				"/>
				<polygon fill="#FFFFFF" points="83.993,46.066 83.981,46.875 -14.573,48.26 -14.562,47.452 				"/>
			</g>
			<g display="inline">
				<polygon fill="#231F20" points="83.959,48.49 83.947,49.299 -14.607,50.684 -14.596,49.876 				"/>
				<polygon fill="#231F20" points="83.981,46.875 83.97,47.683 -14.584,49.067 -14.573,48.26 				"/>
				<polygon fill="#FFFFFF" points="83.97,47.683 83.959,48.49 -14.596,49.876 -14.584,49.067 				"/>
				<polygon fill="#FFFFFF" points="83.993,46.066 83.981,46.875 -14.573,48.26 -14.562,47.452 				"/>
			</g>
			<g display="inline">
				<polygon fill="#231F20" points="84.004,45.259 83.993,46.066 -14.562,47.452 -14.55,46.644 				"/>
				<polygon fill="#231F20" points="84.027,43.644 84.016,44.451 -14.539,45.836 -14.527,45.028 				"/>
				<polygon fill="#FFFFFF" points="84.016,44.451 84.004,45.259 -14.55,46.644 -14.539,45.836 				"/>
				<polygon fill="#FFFFFF" points="84.038,42.836 84.027,43.644 -14.527,45.028 -14.517,44.22 				"/>
			</g>
			<g display="inline">
				<polygon fill="#231F20" points="84.004,45.259 83.993,46.066 -14.562,47.452 -14.55,46.644 				"/>
				<polygon fill="#231F20" points="84.027,43.644 84.016,44.451 -14.539,45.836 -14.527,45.028 				"/>
				<polygon fill="#FFFFFF" points="84.016,44.451 84.004,45.259 -14.55,46.644 -14.539,45.836 				"/>
				<polygon fill="#FFFFFF" points="84.038,42.836 84.027,43.644 -14.527,45.028 -14.517,44.22 				"/>
			</g>
			<g display="inline">
				<polygon fill="#231F20" points="84.05,42.028 84.038,42.836 -14.517,44.22 -14.505,43.412 				"/>
				<polygon fill="#231F20" points="84.072,40.412 84.061,41.221 -14.493,42.604 -14.482,41.796 				"/>
				<polygon fill="#FFFFFF" points="84.061,41.221 84.05,42.028 -14.505,43.412 -14.493,42.604 				"/>
				<polygon fill="#FFFFFF" points="84.084,39.604 84.072,40.412 -14.482,41.796 -14.471,40.988 				"/>
			</g>
			<g display="inline">
				<polygon fill="#231F20" points="84.05,42.028 84.038,42.836 -14.517,44.22 -14.505,43.412 				"/>
				<polygon fill="#231F20" points="84.072,40.412 84.061,41.221 -14.493,42.604 -14.482,41.796 				"/>
				<polygon fill="#FFFFFF" points="84.061,41.221 84.05,42.028 -14.505,43.412 -14.493,42.604 				"/>
				<polygon fill="#FFFFFF" points="84.084,39.604 84.072,40.412 -14.482,41.796 -14.471,40.988 				"/>
			</g>
			<g display="inline">
				<polygon fill="#231F20" points="84.095,38.797 84.084,39.604 -14.471,40.988 -14.459,40.181 				"/>
				<polygon fill="#231F20" points="84.118,37.182 84.106,37.989 -14.448,39.373 -14.437,38.564 				"/>
				<polygon fill="#FFFFFF" points="84.106,37.989 84.095,38.797 -14.459,40.181 -14.448,39.373 				"/>
				<polygon fill="#FFFFFF" points="84.129,36.373 84.118,37.182 -14.437,38.564 -14.425,37.757 				"/>
			</g>
			<g display="inline">
				<polygon fill="#231F20" points="84.095,38.797 84.084,39.604 -14.471,40.988 -14.459,40.181 				"/>
				<polygon fill="#231F20" points="84.118,37.182 84.106,37.989 -14.448,39.373 -14.437,38.564 				"/>
				<polygon fill="#FFFFFF" points="84.106,37.989 84.095,38.797 -14.459,40.181 -14.448,39.373 				"/>
				<polygon fill="#FFFFFF" points="84.129,36.373 84.118,37.182 -14.437,38.564 -14.425,37.757 				"/>
			</g>
			<g display="inline">
				<polygon fill="#231F20" points="84.141,35.564 84.129,36.373 -14.425,37.757 -14.414,36.95 				"/>
				<polygon fill="#231F20" points="84.163,33.949 84.151,34.758 -14.402,36.142 -14.391,35.334 				"/>
				<polygon fill="#FFFFFF" points="84.151,34.758 84.141,35.564 -14.414,36.95 -14.402,36.142 				"/>
				<polygon fill="#FFFFFF" points="84.175,33.143 84.163,33.949 -14.391,35.334 -14.38,34.526 				"/>
			</g>
			<g display="inline">
				<polygon fill="#231F20" points="84.141,35.564 84.129,36.373 -14.425,37.757 -14.414,36.95 				"/>
				<polygon fill="#231F20" points="84.163,33.949 84.151,34.758 -14.402,36.142 -14.391,35.334 				"/>
				<polygon fill="#FFFFFF" points="84.151,34.758 84.141,35.564 -14.414,36.95 -14.402,36.142 				"/>
				<polygon fill="#FFFFFF" points="84.175,33.143 84.163,33.949 -14.391,35.334 -14.38,34.526 				"/>
			</g>
			<g display="inline">
				<polygon fill="#231F20" points="84.186,32.334 84.175,33.143 -14.38,34.526 -14.369,33.719 				"/>
				<polygon fill="#231F20" points="84.209,30.719 84.197,31.526 -14.357,32.911 -14.346,32.103 				"/>
				<polygon fill="#FFFFFF" points="84.197,31.526 84.186,32.334 -14.369,33.719 -14.357,32.911 				"/>
				<polygon fill="#FFFFFF" points="84.22,29.911 84.209,30.719 -14.346,32.103 -14.335,31.295 				"/>
			</g>
			<g display="inline">
				<polygon fill="#231F20" points="84.231,29.103 84.22,29.911 -14.335,31.295 -14.324,30.487 				"/>
				<polygon fill="#231F20" points="84.254,27.487 84.242,28.295 -14.312,29.679 -14.301,28.872 				"/>
				<polygon fill="#FFFFFF" points="84.242,28.295 84.231,29.103 -14.324,30.487 -14.312,29.679 				"/>
				<polygon fill="#FFFFFF" points="84.266,26.68 84.254,27.487 -14.301,28.872 -14.289,28.063 				"/>
			</g>
			<g display="inline">
				<polygon fill="#231F20" points="84.276,25.872 84.266,26.68 -14.289,28.063 -14.278,27.256 				"/>
				<polygon fill="#231F20" points="84.3,24.256 84.288,25.063 -14.266,26.448 -14.255,25.64 				"/>
				<polygon fill="#FFFFFF" points="84.288,25.063 84.276,25.872 -14.278,27.256 -14.266,26.448 				"/>
				<polygon fill="#FFFFFF" points="84.311,23.448 84.3,24.256 -14.255,25.64 -14.244,24.833 				"/>
			</g>
			<g display="inline">
				<polygon fill="#231F20" points="84.276,25.872 84.266,26.68 -14.289,28.063 -14.278,27.256 				"/>
				<polygon fill="#231F20" points="84.3,24.256 84.288,25.063 -14.266,26.448 -14.255,25.64 				"/>
				<polygon fill="#FFFFFF" points="84.288,25.063 84.276,25.872 -14.278,27.256 -14.266,26.448 				"/>
				<polygon fill="#FFFFFF" points="84.311,23.448 84.3,24.256 -14.255,25.64 -14.244,24.833 				"/>
			</g>
			<g display="inline">
				<polygon fill="#231F20" points="84.322,22.64 84.311,23.448 -14.244,24.833 -14.233,24.024 				"/>
				<polygon fill="#231F20" points="84.345,21.024 84.333,21.833 -14.221,23.216 -14.21,22.409 				"/>
				<polygon fill="#FFFFFF" points="84.333,21.833 84.322,22.64 -14.233,24.024 -14.221,23.216 				"/>
				<polygon fill="#FFFFFF" points="84.356,20.217 84.345,21.024 -14.21,22.409 -14.199,21.601 				"/>
			</g>
			<g display="inline">
				<polygon fill="#231F20" points="84.322,22.64 84.311,23.448 -14.244,24.833 -14.233,24.024 				"/>
				<polygon fill="#231F20" points="84.345,21.024 84.333,21.833 -14.221,23.216 -14.21,22.409 				"/>
				<polygon fill="#FFFFFF" points="84.333,21.833 84.322,22.64 -14.233,24.024 -14.221,23.216 				"/>
				<polygon fill="#FFFFFF" points="84.356,20.217 84.345,21.024 -14.21,22.409 -14.199,21.601 				"/>
			</g>
			<g display="inline">
				<polygon fill="#231F20" points="84.367,19.409 84.356,20.217 -14.199,21.601 -14.188,20.793 				"/>
				<polygon fill="#231F20" points="84.391,17.793 84.379,18.602 -14.176,19.985 -14.165,19.178 				"/>
				<polygon fill="#FFFFFF" points="84.379,18.602 84.367,19.409 -14.188,20.793 -14.176,19.985 				"/>
				<polygon fill="#FFFFFF" points="84.401,16.985 84.391,17.793 -14.165,19.178 -14.153,18.37 				"/>
			</g>
			<g display="inline">
				<polygon fill="#231F20" points="84.367,19.409 84.356,20.217 -14.199,21.601 -14.188,20.793 				"/>
				<polygon fill="#231F20" points="84.391,17.793 84.379,18.602 -14.176,19.985 -14.165,19.178 				"/>
				<polygon fill="#FFFFFF" points="84.379,18.602 84.367,19.409 -14.188,20.793 -14.176,19.985 				"/>
				<polygon fill="#FFFFFF" points="84.401,16.985 84.391,17.793 -14.165,19.178 -14.153,18.37 				"/>
			</g>
			<g display="inline">
				<polygon fill="#231F20" points="84.413,16.178 84.401,16.985 -14.153,18.37 -14.142,17.562 				"/>
				<polygon fill="#231F20" points="84.436,14.562 84.424,15.37 -14.13,16.754 -14.119,15.946 				"/>
				<polygon fill="#FFFFFF" points="84.424,15.37 84.413,16.178 -14.142,17.562 -14.13,16.754 				"/>
				<polygon fill="#FFFFFF" points="84.447,13.753 84.436,14.562 -14.119,15.946 -14.107,15.138 				"/>
			</g>
			<g display="inline">
				<polygon fill="#231F20" points="84.413,16.178 84.401,16.985 -14.153,18.37 -14.142,17.562 				"/>
				<polygon fill="#231F20" points="84.436,14.562 84.424,15.37 -14.13,16.754 -14.119,15.946 				"/>
				<polygon fill="#FFFFFF" points="84.424,15.37 84.413,16.178 -14.142,17.562 -14.13,16.754 				"/>
				<polygon fill="#FFFFFF" points="84.447,13.753 84.436,14.562 -14.119,15.946 -14.107,15.138 				"/>
			</g>
			<g display="inline">
				<polygon fill="#231F20" points="84.458,12.946 84.447,13.753 -14.107,15.138 -14.097,14.331 				"/>
				<polygon fill="#231F20" points="84.481,11.331 84.47,12.139 -14.085,13.523 -14.074,12.715 				"/>
				<polygon fill="#FFFFFF" points="84.47,12.139 84.458,12.946 -14.097,14.331 -14.085,13.523 				"/>
				<polygon fill="#FFFFFF" points="84.492,10.523 84.481,11.331 -14.074,12.715 -14.062,11.907 				"/>
			</g>
			<g display="inline">
				<polygon fill="#231F20" points="84.458,12.946 84.447,13.753 -14.107,15.138 -14.097,14.331 				"/>
				<polygon fill="#231F20" points="84.481,11.331 84.47,12.139 -14.085,13.523 -14.074,12.715 				"/>
				<polygon fill="#FFFFFF" points="84.47,12.139 84.458,12.946 -14.097,14.331 -14.085,13.523 				"/>
				<polygon fill="#FFFFFF" points="84.492,10.523 84.481,11.331 -14.074,12.715 -14.062,11.907 				"/>
			</g>
			<g display="inline">
				<polygon fill="#231F20" points="84.504,9.715 84.492,10.523 -14.062,11.907 -14.051,11.1 				"/>
				<polygon fill="#231F20" points="84.526,8.1 84.515,8.908 -14.04,10.292 -14.028,9.484 				"/>
				<polygon fill="#FFFFFF" points="84.515,8.908 84.504,9.715 -14.051,11.1 -14.04,10.292 				"/>
				<polygon fill="#FFFFFF" points="84.538,7.292 84.526,8.1 -14.028,9.484 -14.017,8.676 				"/>
			</g>
			<g display="inline">
				<polygon fill="#231F20" points="84.504,9.715 84.492,10.523 -14.062,11.907 -14.051,11.1 				"/>
				<polygon fill="#231F20" points="84.526,8.1 84.515,8.908 -14.04,10.292 -14.028,9.484 				"/>
				<polygon fill="#FFFFFF" points="84.515,8.908 84.504,9.715 -14.051,11.1 -14.04,10.292 				"/>
				<polygon fill="#FFFFFF" points="84.538,7.292 84.526,8.1 -14.028,9.484 -14.017,8.676 				"/>
			</g>
			<g display="inline">
				<polygon fill="#231F20" points="84.549,6.484 84.538,7.292 -14.017,8.676 -14.006,7.868 				"/>
				<polygon fill="#231F20" points="84.572,4.868 84.561,5.676 -13.994,7.061 -13.983,6.252 				"/>
				<polygon fill="#FFFFFF" points="84.561,5.676 84.549,6.484 -14.006,7.868 -13.994,7.061 				"/>
				<polygon fill="#FFFFFF" points="84.583,4.061 84.572,4.868 -13.983,6.252 -13.972,5.444 				"/>
			</g>
			<g display="inline">
				<polygon fill="#231F20" points="84.549,6.484 84.538,7.292 -14.017,8.676 -14.006,7.868 				"/>
				<polygon fill="#231F20" points="84.572,4.868 84.561,5.676 -13.994,7.061 -13.983,6.252 				"/>
				<polygon fill="#FFFFFF" points="84.561,5.676 84.549,6.484 -14.006,7.868 -13.994,7.061 				"/>
				<polygon fill="#FFFFFF" points="84.583,4.061 84.572,4.868 -13.983,6.252 -13.972,5.444 				"/>
			</g>
			<g display="inline">
				<polygon fill="#231F20" points="84.595,3.252 84.583,4.061 -13.972,5.444 -13.96,4.637 				"/>
				<polygon fill="#231F20" points="84.617,1.637 84.605,2.445 -13.948,3.829 -13.938,3.021 				"/>
				<polygon fill="#FFFFFF" points="84.605,2.445 84.595,3.252 -13.96,4.637 -13.948,3.829 				"/>
				<polygon fill="#FFFFFF" points="84.629,0.829 84.617,1.637 -13.938,3.021 -13.926,2.213 				"/>
			</g>
			<g display="inline">
				<polygon fill="#231F20" points="84.595,3.252 84.583,4.061 -13.972,5.444 -13.96,4.637 				"/>
				<polygon fill="#231F20" points="84.617,1.637 84.605,2.445 -13.948,3.829 -13.938,3.021 				"/>
				<polygon fill="#FFFFFF" points="84.605,2.445 84.595,3.252 -13.96,4.637 -13.948,3.829 				"/>
				<polygon fill="#FFFFFF" points="84.629,0.829 84.617,1.637 -13.938,3.021 -13.926,2.213 				"/>
			</g>
			<g display="inline">
				<polygon fill="#231F20" points="84.64,0.021 84.629,0.829 -13.926,2.213 -13.915,1.406 				"/>
				<polygon fill="#231F20" points="84.663,-1.595 84.651,-0.786 -13.904,0.598 -13.893,-0.21 				"/>
				<polygon fill="#FFFFFF" points="84.651,-0.786 84.64,0.021 -13.915,1.406 -13.904,0.598 				"/>
				<polygon fill="#FFFFFF" points="84.674,-2.402 84.663,-1.595 -13.893,-0.21 -13.881,-1.018 				"/>
			</g>
			<g display="inline">
				<polygon fill="#231F20" points="84.64,0.021 84.629,0.829 -13.926,2.213 -13.915,1.406 				"/>
				<polygon fill="#231F20" points="84.663,-1.595 84.651,-0.786 -13.904,0.598 -13.893,-0.21 				"/>
				<polygon fill="#FFFFFF" points="84.651,-0.786 84.64,0.021 -13.915,1.406 -13.904,0.598 				"/>
				<polygon fill="#FFFFFF" points="84.674,-2.402 84.663,-1.595 -13.893,-0.21 -13.881,-1.018 				"/>
			</g>
			<g display="inline">
				<polygon fill="#231F20" points="84.686,-3.21 84.674,-2.402 -13.881,-1.018 -13.87,-1.826 				"/>
				<polygon fill="#231F20" points="84.708,-4.826 84.696,-4.018 -13.858,-2.634 -13.847,-3.442 				"/>
				<polygon fill="#FFFFFF" points="84.696,-4.018 84.686,-3.21 -13.87,-1.826 -13.858,-2.634 				"/>
				<polygon fill="#FFFFFF" points="84.72,-5.634 84.708,-4.826 -13.847,-3.442 -13.835,-4.249 				"/>
			</g>
		</g>
		<g clip-path="url(#SVGID_2_)">
			<polygon fill="#231F20" points="75.583,64.993 75.551,67.262 16.539,68.091 16.57,65.822 			"/>
			<polygon fill="#231F20" points="75.636,61.21 75.604,63.479 16.592,64.309 16.624,62.039 			"/>
			<polygon fill="#231F20" points="75.688,57.427 75.657,59.696 16.645,60.526 16.677,58.256 			"/>
			<polygon fill="#231F20" points="75.741,53.645 75.71,55.914 16.698,56.743 16.73,54.474 			"/>
			<polygon fill="#231F20" points="75.795,49.862 75.764,52.131 16.751,52.96 16.783,50.69 			"/>
			<polygon fill="#231F20" points="75.849,46.079 75.816,48.349 16.804,49.178 16.836,46.908 			"/>
			<polygon fill="#231F20" points="75.901,42.296 75.87,44.566 16.857,45.395 16.889,43.125 			"/>
			<polygon fill="#231F20" points="75.955,38.514 75.923,40.783 16.911,41.612 16.943,39.343 			"/>
			<polygon fill="#231F20" points="76.008,34.73 75.977,37 16.964,37.829 16.996,35.56 			"/>
			<polygon fill="#231F20" points="76.062,30.948 76.029,33.217 17.017,34.046 17.049,31.777 			"/>
			<polygon fill="#231F20" points="76.114,27.166 76.082,29.435 17.07,30.263 17.102,27.994 			"/>
			<polygon fill="#231F20" points="76.167,23.382 76.135,25.652 17.124,26.48 17.155,24.211 			"/>
			<polygon fill="#231F20" points="76.22,19.599 76.188,21.869 17.176,22.698 17.208,20.428 			"/>
			<polygon fill="#231F20" points="76.273,15.816 76.241,18.086 17.23,18.916 17.262,16.645 			"/>
			<polygon fill="#231F20" points="76.326,12.034 76.294,14.303 17.283,15.132 17.314,12.862 			"/>
			<polygon fill="#231F20" points="76.379,8.251 76.347,10.52 17.336,11.349 17.368,9.08 			"/>
		</g>
	</g>
	<path fill="#231F20" d="M5.679,5.679c-6.238,6.238-6.238,16.353,0,22.591l1.6,1.6L29.87,7.279l-1.6-1.6
		C22.031-0.56,11.917-0.559,5.679,5.679z"/>
</g>
<rect x="15.53" y="27.088" transform="matrix(0.7069 -0.7073 0.7073 0.7069 -21.6715 22.8954)" fill="#231F20" width="2.523" height="21.018"/>
<rect x="18.502" y="24.116" transform="matrix(0.7069 -0.7073 0.7073 0.7069 -18.6979 24.1266)" fill="#231F20" width="2.523" height="21.018"/>
<rect x="21.474" y="21.143" transform="matrix(0.7069 -0.7073 0.7073 0.7069 -15.7246 25.3577)" fill="#231F20" width="2.523" height="21.019"/>
<rect x="24.447" y="18.171" transform="matrix(0.7068 -0.7074 0.7074 0.7068 -12.7512 26.5942)" fill="#231F20" width="2.522" height="21.019"/>
<rect x="27.42" y="15.199" transform="matrix(0.707 -0.7072 0.7072 0.707 -9.778 27.815)" fill="#231F20" width="2.521" height="21.018"/>
<rect x="30.392" y="12.227" transform="matrix(0.7071 -0.7071 0.7071 0.7071 -6.8056 29.041)" fill="#231F20" width="2.522" height="21.018"/>
<rect x="33.364" y="9.254" transform="matrix(0.7071 -0.7071 0.7071 0.7071 -3.8333 30.2721)" fill="#231F20" width="2.522" height="21.018"/>
<rect x="36.336" y="6.282" transform="matrix(0.7071 -0.7071 0.7071 0.7071 -0.8608 31.5033)" fill="#231F20" width="2.522" height="21.018"/>
</svg>
