<?xml version="1.0" encoding="utf-8"?>
<!-- Generator: Adobe Illustrator 16.0.3, SVG Export Plug-In . SVG Version: 6.00 Build 0)  -->
<!DOCTYPE svg PUBLIC "-//W3C//DTD SVG 1.1//EN" "http://www.w3.org/Graphics/SVG/1.1/DTD/svg11.dtd">
<svg version="1.1" id="Layer_1" xmlns="http://www.w3.org/2000/svg" xmlns:xlink="http://www.w3.org/1999/xlink" x="0px" y="0px"
	 width="256px" height="256px" viewBox="0 0 256 256" enable-background="new 0 0 256 256" xml:space="preserve">
<path fill="#C6C6C6" d="M102.401,24.999H25.599c-14.083,0-25.474,11.516-25.474,25.599L0,204.197
	c0,14.078,11.516,25.604,25.599,25.604h204.803c14.072,0,25.599-11.525,25.599-25.604V76.199c0-14.083-11.526-25.602-25.599-25.602
	H128L102.401,24.999z"/>
<path fill="#FFFFFF" d="M58,138.065c0,17.188,7.079,32.669,18.354,43.872L58,200.287h46.667v-46.666l-17.423,17.426
	c-8.397-8.477-13.688-20.068-13.688-32.981c0-20.299,12.988-37.566,31.111-43.943V77.864C77.833,84.788,58,109.056,58,138.065z
	 M120.222,176.955h15.556v-15.557h-15.556V176.955z M198.001,75.844h-46.667v46.667l17.423-17.425
	c8.402,8.481,13.689,20.068,13.689,32.979c0,20.296-12.988,37.567-31.112,43.948v16.254c26.835-6.926,46.667-31.186,46.667-60.202
	c0-17.188-7.078-32.667-18.352-43.867L198.001,75.844z M120.222,145.844h15.556V99.178h-15.556V145.844z"/>
</svg>
