<?xml version="1.0" encoding="utf-8"?>
<!-- Generator: Adobe Illustrator 16.0.3, SVG Export Plug-In . SVG Version: 6.00 Build 0)  -->
<!DOCTYPE svg PUBLIC "-//W3C//DTD SVG 1.1//EN" "http://www.w3.org/Graphics/SVG/1.1/DTD/svg11.dtd">
<svg version="1.1" id="Layer_1" xmlns="http://www.w3.org/2000/svg" xmlns:xlink="http://www.w3.org/1999/xlink" x="0px" y="0px"
	 width="256px" height="256px" viewBox="0 0 256 256" enable-background="new 0 0 256 256" xml:space="preserve">
<path fill="#F05261" d="M50.596,0c-14.08,0-25.473,11.518-25.473,25.599l-0.125,204.803c0,14.072,11.393,25.599,25.474,25.599
	h153.723c14.078,0,25.604-11.526,25.604-25.599V76.802L152.997,0H50.596z M140.195,89.599V19.201l70.4,70.398H140.195z"/>
<g>
	<path fill="#FFFFFF" d="M139.752,195.229c0,5.947-4.738,10.553-10.695,10.553c-5.955,0-10.556-4.604-10.556-10.553
		c0-5.959,4.602-10.697,10.556-10.697C135.014,184.531,139.752,189.271,139.752,195.229z M135.15,111.013V176h-12.185v-64.987
		H135.15z"/>
</g>
</svg>
