<?xml version="1.0" encoding="utf-8"?>
<!-- Generator: Adobe Illustrator 16.0.3, SVG Export Plug-In . SVG Version: 6.00 Build 0)  -->
<!DOCTYPE svg PUBLIC "-//W3C//DTD SVG 1.1//EN" "http://www.w3.org/Graphics/SVG/1.1/DTD/svg11.dtd">
<svg version="1.1" id="Layer_1" xmlns="http://www.w3.org/2000/svg" xmlns:xlink="http://www.w3.org/1999/xlink" x="0px" y="0px"
	 width="256px" height="256px" viewBox="0 0 256 256" enable-background="new 0 0 256 256" xml:space="preserve">
<path fill="#CACACA" d="M50.596,0c-14.08,0-25.473,11.518-25.473,25.599l-0.125,204.803c0,14.072,11.393,25.599,25.474,25.599
	h153.723c14.078,0,25.604-11.526,25.604-25.599V76.802L152.997,0H50.596z M140.195,89.599V19.201l70.4,70.398H140.195z"/>
<g>
	<path fill="#FFFFFF" d="M129.346,121.054c17.172,0,28.574,10.979,28.574,27.027c0,11.823-6.193,18.158-13.654,25.056
		c-5.066,4.646-8.586,8.023-8.586,15.202v3.519h-12.668v-3.519c0-12.669,7.319-19.707,13.795-25.338
		c3.94-3.378,8.444-7.319,8.444-14.498c0-7.742-5.067-14.78-16.047-14.78c-11.261,0-18.158,7.461-18.158,19.988H98.659
		C98.659,134.99,109.92,121.054,129.346,121.054z M140.605,208.607c0,6.193-4.926,10.979-11.121,10.979
		c-6.192,0-10.979-4.786-10.979-10.979c0-6.192,4.786-11.119,10.979-11.119C135.68,197.488,140.605,202.415,140.605,208.607z"/>
</g>
</svg>
